<svg width="32" height="33" viewBox="0 0 32 33" fill="none" xmlns="http://www.w3.org/2000/svg">
<g clip-path="url(#clip0_675_99)">
<path d="M32 27.3895C32 29.9758 29.9141 32.0723 27.3411 32.0723H4.65885C2.08581 32.0723 0 29.9758 0 27.3895V4.75501C0 2.16878 2.08581 0.0722656 4.65885 0.0722656H27.3411C29.9142 0.0722656 32 2.16878 32 4.75501V27.3895Z" fill="#FAAB62"/>
<path d="M31.8358 27.273C31.8358 29.8326 29.7714 31.9076 27.2248 31.9076H4.7755C2.22892 31.9076 0.164551 29.8326 0.164551 27.273V4.87092C0.164551 2.31128 2.229 0.236328 4.7755 0.236328H27.2248C29.7714 0.236328 31.8358 2.31136 31.8358 4.87092V27.273Z" fill="#F7931E"/>
<path d="M15.9821 4.85547C12.8106 4.85547 10.2397 7.43964 10.2397 10.6273C10.2397 13.815 12.8106 16.3993 15.9821 16.3993C19.1536 16.3993 21.7245 13.815 21.7245 10.6273C21.7245 7.43964 19.1536 4.85547 15.9821 4.85547ZM15.9821 13.0134C14.6711 13.0134 13.6083 11.945 13.6083 10.6274C13.6083 9.30967 14.6711 8.24142 15.9821 8.24142C17.2931 8.24142 18.3559 9.30967 18.3559 10.6274C18.3559 11.945 17.2931 13.0134 15.9821 13.0134Z" fill="white"/>
<path d="M18.0097 20.9918C20.3086 20.521 21.6862 19.4268 21.7591 19.368C22.4318 18.8258 22.5398 17.8381 22.0003 17.1618C21.4609 16.4857 20.4783 16.3771 19.8055 16.9193C19.7913 16.9308 18.3219 18.0637 15.9044 18.0654C13.4869 18.0637 11.9865 16.9308 11.9723 16.9193C11.2994 16.3771 10.3168 16.4857 9.77743 17.1618C9.23793 17.8381 9.346 18.8258 10.0187 19.368C10.0926 19.4276 11.5271 20.5504 13.8904 21.01L10.5966 24.4699C9.99807 25.0938 10.0161 26.0873 10.6368 26.689C10.9398 26.9826 11.3303 27.1286 11.7205 27.1286C12.1296 27.1286 12.5382 26.9679 12.8446 26.6485L15.9045 23.3723L19.2734 26.6697C19.8838 27.2823 20.8722 27.2813 21.4815 26.668C22.0907 26.0546 22.09 25.061 21.4797 24.4486L18.0097 20.9918Z" fill="white"/>
</g>
<defs>
<clipPath id="clip0_675_99">
<rect width="32" height="32" fill="white" transform="translate(0 0.0722656)"/>
</clipPath>
</defs>
</svg>
