<svg width="32" height="33" viewBox="0 0 32 33" fill="none" xmlns="http://www.w3.org/2000/svg">
<g clip-path="url(#clip0_675_94)">
<path fill-rule="evenodd" clip-rule="evenodd" d="M5.086 0.296875H26.914C29.599 0.296875 31.7758 2.47363 31.7758 5.15875V26.9867C31.7758 29.6718 29.599 31.8486 26.914 31.8486H5.086C2.40087 31.8486 0.224121 29.6718 0.224121 26.9867V5.15875C0.224121 2.47363 2.40087 0.296875 5.086 0.296875Z" fill="#2787F5"/>
<path fill-rule="evenodd" clip-rule="evenodd" d="M15.7352 22.3842H17.0258C17.0258 22.3842 17.4156 22.3412 17.6149 22.1268C17.7981 21.9297 17.7922 21.5599 17.7922 21.5599C17.7922 21.5599 17.767 19.8281 18.5706 19.5731C19.3631 19.3217 20.3805 21.2468 21.4589 21.987C22.2744 22.547 22.894 22.4245 22.894 22.4245L25.7777 22.3842C25.7777 22.3842 27.2861 22.2911 26.5708 21.1051C26.5123 21.0082 26.1542 20.2278 24.4267 18.6244C22.6184 16.9461 22.8608 17.2176 25.0389 14.3147C26.3653 12.5467 26.8955 11.4675 26.7298 11.0053C26.572 10.5649 25.5963 10.6812 25.5963 10.6812L22.3496 10.7013C22.3496 10.7013 22.1087 10.6685 21.9303 10.7753C21.7558 10.8797 21.6438 11.1236 21.6438 11.1236C21.6438 11.1236 21.1297 12.4915 20.4446 13.6551C18.9989 16.11 18.4207 16.24 18.1844 16.0873C17.6346 15.732 17.772 14.6602 17.772 13.8985C17.772 11.5194 18.1328 10.5274 17.0693 10.2706C16.7164 10.1855 16.4564 10.1291 15.5538 10.1199C14.3952 10.1081 13.4149 10.1235 12.8597 10.3955C12.4903 10.5764 12.2053 10.9793 12.379 11.0025C12.5936 11.0311 13.0795 11.1337 13.3371 11.4842C13.6699 11.937 13.6583 12.9535 13.6583 12.9535C13.6583 12.9535 13.8495 15.7541 13.2118 16.1019C12.7742 16.3405 12.1738 15.8534 10.8849 13.6262C10.2246 12.4853 9.72587 11.2241 9.72587 11.2241C9.72587 11.2241 9.62984 10.9885 9.4583 10.8623C9.25027 10.7095 8.95958 10.6611 8.95958 10.6611L5.8742 10.6812C5.8742 10.6812 5.41115 10.6941 5.24098 10.8956C5.08959 11.0748 5.22889 11.4452 5.22889 11.4452C5.22889 11.4452 7.64424 17.0963 10.3794 19.9442C12.8876 22.5556 15.7352 22.3842 15.7352 22.3842Z" fill="white"/>
</g>
<defs>
<clipPath id="clip0_675_94">
<rect width="32" height="32" fill="white" transform="translate(0 0.0722656)"/>
</clipPath>
</defs>
</svg>
